# xmcd
#
# Track frame offsets:
#	150
#	18000
#	33526
#	52126
#	70576
#	86401
#	100201
#	114901
#	136351
#	149176
#	165376
#	184276
#	199501
#	215026
#	233326
#	249826
#
# Disc length: 3515 seconds
#
# Revision: 0
# Processed by: cddbd v1.5.2PL0 Copyright (c) Steve Scherf et al.
# Submitted via: audiograbber 1.83.01
#
DISCID=d70db910
DTITLE=Sybersound All-Star Country Vol 1 - SYB1033
DYEAR=2003
DGENRE=Country
TTITLE0=Shania Twain - Man I Feel Like A Woman
TTITLE1=Toby Keith - How Do You Like Me Now
TTITLE2=Faith Hill - Breathe
TTITLE3=Lonestar - Amazed
TTITLE4=Dixie Chicks - Ready To Run
TTITLE5=Brad Paisley - Wrapped Around
TTITLE6=LeAnn Rimes - Big Deal
TTITLE7=Tim McGraw - My Best Friend
TTITLE8=Martina McBride - I Love You
TTITLE9=Kenny Rogers w/ Alison Krauss - Buy Me A Rose
TTITLE10=Dixie Chicks - Cowboy Take Me Away
TTITLE11=Chad Brock - Yes!
TTITLE12=LeAnn Rimes - I Need You
TTITLE13=Clay Walker - Chain Of Love
TTITLE14=Jessica Andrews - Who I Am
TTITLE15=Alan Jackson - Pop A Top
EXTD=
EXTT0=
EXTT1=
EXTT2=
EXTT3=
EXTT4=
EXTT5=
EXTT6=
EXTT7=
EXTT8=
EXTT9=
EXTT10=
EXTT11=
EXTT12=
EXTT13=
EXTT14=
EXTT15=
PLAYORDER=
